# xmcd
#
# Track frame offsets:
#	150
#	17157
#	30032
#	43932
#	66683
#	83120
#	102985
#	118924
#	162515
#	181321
#	200048
#	212148
#	234703
#	255217
#	274728
#	302281
#
# Disc length: 4237 seconds
#
# Revision: 5
# Processed by: cddbd v1.4PL0 Copyright (c) Steve Scherf et al.
# Submitted via: CDmax 1.8
#
DISCID=df108b10
DTITLE=Ryan Adams - Gold
DYEAR=2001
DGENRE=Alt. Country
TTITLE0=New York, New York
TTITLE1=Firecracker
TTITLE2=Answering Bell
TTITLE3=La Cienega Just Smiled
TTITLE4=The Rescue Blues
TTITLE5=Somehow, Someday
TTITLE6=When the Stars Go Blue
TTITLE7=Nobody Girl
TTITLE8=Sylvia Plath
TTITLE9=Enemy Fire
TTITLE10=Gonna Make You Love Me
TTITLE11=Wild Flowers
TTITLE12=Harder Now That It's Over
TTITLE13=Touch, Feel and Lose
TTITLE14=Tina Toledo's Street Walkin' Blues
TTITLE15=Goodnight, Hollywood Blvd.
EXTD=
EXTT0=
EXTT1=
EXTT2=
EXTT3=
EXTT4=
EXTT5=
EXTT6=
EXTT7=
EXTT8=
EXTT9=
EXTT10=
EXTT11=
EXTT12=
EXTT13=
EXTT14=
EXTT15=
PLAYORDER=
